<?xml version="1.0" encoding="UTF-8" standalone="no"?>
<!-- Created with Inkscape (http://www.inkscape.org/) -->

<svg
   width="210mm"
   height="297mm"
   viewBox="0 0 210 297"
   version="1.1"
   id="svg1"
   inkscape:version="1.4 (e7c3feb1, 2024-10-09)"
   sodipodi:docname="çizim.svg"
   xmlns:inkscape="http://www.inkscape.org/namespaces/inkscape"
   xmlns:sodipodi="http://sodipodi.sourceforge.net/DTD/sodipodi-0.dtd"
   xmlns="http://www.w3.org/2000/svg"
   xmlns:svg="http://www.w3.org/2000/svg">
  <sodipodi:namedview
     id="namedview1"
     pagecolor="#ffffff"
     bordercolor="#000000"
     borderopacity="0.25"
     inkscape:showpageshadow="2"
     inkscape:pageopacity="0.0"
     inkscape:pagecheckerboard="0"
     inkscape:deskcolor="#d1d1d1"
     inkscape:document-units="mm"
     inkscape:zoom="0.51736556"
     inkscape:cx="415.5669"
     inkscape:cy="581.79366"
     inkscape:window-width="1104"
     inkscape:window-height="639"
     inkscape:window-x="0"
     inkscape:window-y="35"
     inkscape:window-maximized="0"
     inkscape:current-layer="layer1" />
  <defs
     id="defs1" />
  <g
     inkscape:label="Katman 1"
     inkscape:groupmode="layer"
     id="layer1">
    <g
       id="g9"
       transform="translate(11.433146,31.947029)">
      <path
         id="path1"
         style="fill:none;stroke:#000000;stroke-width:22;stroke-dasharray:none;stroke-opacity:1"
         d="m 47.235307,181.95959 a 47.560665,45.259342 35.244972 0 0 15.145906,17.15081 47.560665,45.259342 35.244972 0 0 64.960397,-9.51694 v 0 A 47.560665,45.259342 35.244972 0 0 114.61715,125.1845 47.560665,45.259342 35.244972 0 0 93.392775,116.63612" />
      <path
         id="path1-7"
         style="fill:none;stroke:#000000;stroke-width:22;stroke-dasharray:none;stroke-opacity:1"
         d="M 93.740933,116.46982 A 47.560665,45.259342 35.244972 0 1 72.516558,107.92144 47.560665,45.259342 35.244972 0 1 59.792096,43.512486 v 0 a 47.560665,45.259342 35.244972 0 1 64.960394,-9.516947 47.560665,45.259342 35.244972 0 1 15.14591,17.150813" />
    </g>
  </g>
</svg>
